<svg width="941" height="780" viewBox="0 0 941 780" fill="none" xmlns="http://www.w3.org/2000/svg">
<g id="undraw_personal_text_vkd8 1">
<g id="circle">
<path id="Vector" d="M568 746C774.002 746 941 579.002 941 373C941 166.998 774.002 0 568 0C361.998 0 195 166.998 195 373C195 579.002 361.998 746 568 746Z" fill="#F2F2F2"/>
</g>
<g id="eclipse">
<path id="Vector_2" d="M912 732C912 747.464 707.842 780 456 780C204.158 780 0 747.464 0 732C0 716.536 204.158 724 456 724C707.842 724 912 716.536 912 732Z" fill="#3F3D56"/>
<path id="Vector_3" opacity="0.1" d="M912 732C912 747.464 707.842 780 456 780C204.158 780 0 747.464 0 732C0 716.536 204.158 724 456 724C707.842 724 912 716.536 912 732Z" fill="black"/>
<path id="Vector_4" d="M456 760C707.842 760 912 747.464 912 732C912 716.536 707.842 704 456 704C204.158 704 0 716.536 0 732C0 747.464 204.158 760 456 760Z" fill="#3F3D56"/>
</g>
<g id="leaf-1">
<path id="Vector_5" d="M722.189 599.413C722.189 662.617 761.84 713.761 810.841 713.761L722.189 599.413Z" fill="#3F3D56"/>
</g>
<g id="leaf-4">
<path id="Vector_6" d="M810.841 713.761C810.841 649.847 855.089 598.128 909.771 598.128L810.841 713.761Z" fill="#FFC107"/>
</g>
<g id="leaf-2">
<path id="Vector_7" d="M754.309 605.142C754.309 665.18 779.594 713.761 810.841 713.761L754.309 605.142Z" fill="#FFC107"/>
</g>
<g id="leaf-3">
<path id="Vector_8" d="M810.841 713.761C810.841 632.093 861.984 566.008 925.189 566.008L810.841 713.761Z" fill="#3F3D56"/>
</g>
<g id="rest">
<path id="Vector_9" d="M792.19 714.567C792.19 714.567 804.763 714.18 808.552 711.482C812.341 708.784 827.891 705.562 828.831 709.889C829.771 714.216 847.725 731.41 833.531 731.525C819.337 731.639 800.55 729.314 796.768 727.01C792.987 724.707 792.19 714.567 792.19 714.567Z" fill="#A8A8A8"/>
<path id="Vector_10" opacity="0.2" d="M833.784 730.019C819.59 730.133 800.803 727.808 797.022 725.504C794.142 723.75 792.994 717.455 792.61 714.551C792.344 714.562 792.19 714.567 792.19 714.567C792.19 714.567 792.987 724.707 796.768 727.01C800.55 729.314 819.337 731.639 833.531 731.525C837.628 731.492 839.043 730.034 838.966 727.875C838.396 729.179 836.834 729.994 833.784 730.019Z" fill="black"/>
<path id="Vector_11" d="M572.635 235.316C572.635 235.316 585.428 262.18 580.311 274.972C575.194 287.764 599.499 301.836 599.499 301.836L631.48 283.927V260.901L626.363 250.667C626.363 250.667 605.895 239.154 608.454 221.244C611.012 203.335 572.635 235.316 572.635 235.316Z" fill="#FFB9B9"/>
<path id="Vector_12" opacity="0.1" d="M572.635 235.316C572.635 235.316 585.428 262.18 580.311 274.972C575.194 287.764 599.499 301.836 599.499 301.836L631.48 283.927V260.901L626.363 250.667C626.363 250.667 605.895 239.154 608.454 221.244C611.012 203.335 572.635 235.316 572.635 235.316Z" fill="black"/>
<path id="Vector_13" d="M548.33 347.888C548.33 347.888 545.771 376.031 545.771 379.869C545.771 383.707 541.934 396.499 541.934 396.499C541.934 396.499 527.862 461.74 518.908 468.136C509.953 474.532 504.836 514.188 518.908 511.63C532.979 509.071 536.817 474.532 536.817 474.532L565.942 419.535L570.077 353.005L548.33 347.888Z" fill="#FFB9B9"/>
<path id="Vector_14" d="M558.564 291.602H548.33C548.33 291.602 538.096 353.005 548.33 355.564C558.564 358.122 577.752 358.122 577.752 358.122L558.564 291.602Z" fill="#575A89"/>
<path id="Vector_15" d="M616.129 686.885L621.246 711.19L631.48 703.515L626.363 681.768L616.129 685.605V686.885Z" fill="#FFB9B9"/>
<path id="Vector_16" d="M570.077 427.201L562.401 432.318C562.401 432.318 558.564 477.091 567.518 511.63C576.473 546.169 582.869 587.105 582.869 587.105C582.869 587.105 598.22 689.443 602.058 692.002C605.895 694.56 630.201 695.839 631.48 690.722C632.759 685.605 622.525 589.663 622.525 589.663C622.525 589.663 614.85 509.072 621.246 498.838C621.246 498.838 641.714 587.105 648.11 596.059C648.11 596.059 657.065 693.281 662.182 695.839C667.298 698.398 691.604 699.677 692.883 694.56C694.162 689.443 685.208 579.429 681.37 570.475C677.532 561.52 676.253 428.48 667.298 429.759C658.344 431.038 570.077 427.201 570.077 427.201Z" fill="#2F2E41"/>
<path id="Vector_17" d="M585.428 246.829C601.677 246.829 614.85 233.656 614.85 217.407C614.85 201.157 601.677 187.984 585.428 187.984C569.178 187.984 556.005 201.157 556.005 217.407C556.005 233.656 569.178 246.829 585.428 246.829Z" fill="#FFB9B9"/>
<path id="Vector_18" d="M596.941 282.647L590.545 271.134C590.545 271.134 582.869 260.9 579.031 263.459C575.194 266.017 575.194 274.972 575.194 274.972C575.194 274.972 545.771 285.206 548.33 299.277C550.888 313.349 567.518 337.654 567.518 337.654C567.518 337.654 570.077 358.122 567.518 363.239C564.96 368.356 559.843 372.194 563.681 377.311C567.518 382.428 568.798 383.707 567.518 390.103C566.239 396.499 563.681 399.058 566.239 401.616C568.798 404.175 564.96 431.038 562.401 432.318C559.843 433.597 644.272 446.389 650.668 442.551C657.065 438.714 674.974 438.714 673.695 434.876C672.415 431.038 667.298 408.012 667.298 404.175C667.298 400.337 667.298 383.707 666.019 382.428C664.74 381.148 667.298 361.96 667.298 361.96L660.902 308.232L681.37 276.251C681.37 276.251 676.253 258.342 651.948 255.784C627.642 253.225 620.919 246.829 620.919 246.829C620.919 246.829 618.688 258.342 613.571 260.901C608.454 263.459 596.941 282.647 596.941 282.647Z" fill="#575A89"/>
<path id="Vector_19" d="M690.325 317.187L698 374.752L681.37 457.902C681.37 457.902 674.974 505.234 662.182 503.955C649.389 502.675 662.182 452.785 662.182 452.785L672.415 374.752C672.415 374.752 655.785 335.096 659.623 329.979C663.461 324.862 690.325 317.187 690.325 317.187Z" fill="#FFB9B9"/>
<path id="Vector_20" d="M627.642 699.677C627.642 699.677 611.012 690.722 607.175 692.002C603.337 693.281 599.499 711.19 599.499 711.19C599.499 711.19 570.077 732.937 589.265 738.054C608.454 743.171 616.129 731.658 616.129 731.658C616.129 731.658 635.318 721.424 635.318 718.866C635.318 716.307 632.759 699.677 632.759 699.677H627.642Z" fill="#2F2E41"/>
<path id="Vector_21" d="M666.019 693.281C666.019 693.281 658.344 735.496 663.461 738.054C668.578 740.612 690.325 744.45 692.883 738.054C695.442 731.658 695.442 716.307 694.162 711.19C692.883 706.073 689.045 693.281 689.045 693.281H666.019Z" fill="#2F2E41"/>
<path id="Vector_22" d="M580.296 170.869C579.15 170.525 577.935 170.488 576.771 170.762C575.303 171.242 574.339 172.598 573.219 173.662C570.285 176.447 566.093 177.319 562.269 178.638C558.445 179.958 554.422 182.293 553.465 186.223C553.233 187.805 553.094 189.399 553.048 190.997C552.478 195.633 548.941 199.809 549.573 204.437C549.986 207.461 552.143 210.027 552.585 213.046C553.079 216.413 551.378 219.917 552.326 223.185C553.256 226.388 556.401 228.339 559.3 229.989C560.542 222.099 562.035 214.255 563.778 206.455C563.976 205.046 564.524 203.709 565.373 202.567C567.945 199.653 572.99 201.312 576.328 199.322C577.596 198.566 578.537 197.318 579.869 196.681C583.725 194.838 587.896 198.922 592.17 198.96C594.056 198.976 596.125 198.227 597.718 199.237C598.422 199.751 598.98 200.439 599.341 201.232C600.864 204.091 601.701 207.303 603.477 210.011C605.254 212.72 608.435 214.929 611.583 214.171C611.103 211.729 613.015 209.532 613.78 207.163C615.098 203.088 612.944 198.665 613.463 194.415C613.951 190.423 616.551 185.738 613.698 182.905C612.723 182.082 611.566 181.501 610.323 181.211C600.227 178.007 590.901 172.637 580.296 170.869Z" fill="#2F2E41"/>
<path id="Vector_23" d="M668.578 271.134L681.37 276.251C681.37 276.251 698 329.979 694.162 329.979C690.325 329.979 655.785 338.934 655.785 335.096C655.785 331.258 658.344 271.134 668.578 271.134Z" fill="#575A89"/>
</g>
<g id="chat-1">
<path id="Vector_24" d="M466 162H70V292H85V326L119 292H466V162Z" fill="#3F3D56"/>
<path id="Vector_25" d="M420 183.5H116V195.5H420V183.5Z" fill="#00BCD4"/>
<path id="Vector_26" d="M268 206.5H116V218.5H268V206.5Z" fill="#00BCD4"/>
<path id="Vector_27" d="M133 270.5C142.389 270.5 150 262.889 150 253.5C150 244.111 142.389 236.5 133 236.5C123.611 236.5 116 244.111 116 253.5C116 262.889 123.611 270.5 133 270.5Z" fill="#FFC107"/>
</g>
<g id="chat-2">
<path id="Vector_28" d="M140 338H536V468H521V502L487 468H140V338Z" fill="#3F3D56"/>
<path id="Vector_29" d="M480 357.5H176V369.5H480V357.5Z" fill="#00BCD4"/>
<path id="Vector_30" d="M328 380.5H176V392.5H328V380.5Z" fill="#00BCD4"/>
<path id="Vector_31" d="M193 444.5C202.389 444.5 210 436.889 210 427.5C210 418.111 202.389 410.5 193 410.5C183.611 410.5 176 418.111 176 427.5C176 436.889 183.611 444.5 193 444.5Z" fill="#FFC107"/>
</g>
<g id="chat-3">
<path id="Vector_32" d="M466 512H70V642H85V676L119 642H466V512Z" fill="#3F3D56"/>
<path id="Vector_33" d="M420 533.5H116V545.5H420V533.5Z" fill="#00BCD4"/>
<path id="Vector_34" d="M268 556.5H116V568.5H268V556.5Z" fill="#00BCD4"/>
<path id="Vector_35" d="M133 620.5C142.389 620.5 150 612.889 150 603.5C150 594.112 142.389 586.5 133 586.5C123.611 586.5 116 594.112 116 603.5C116 612.889 123.611 620.5 133 620.5Z" fill="#FFC107"/>
</g>
</g>
</svg>
